<?xml version="1.0" encoding="UTF-8"?>
<svg version="1.1" viewBox="0 0 1280 842" width="1280" height="842" xmlns="http://www.w3.org/2000/svg">
<path transform="translate(217,419)" d="m0 0h827l6 3 28 19v3l-895-1 5-5 27-18z" fill="#54442C"/>
<path transform="translate(754,272)" d="m0 0 12 1 13 5 10 9 6 9 3 8 1 6v11l-4 13-6 9-9 8-11 5-12 2-29 1-12 13-13 11-15 9-16 7-19 5-17 2-20-1-16-3-18-6-17-9-12-9-13-12-11-14-9-16-5-12-5-19-2-22v-9l4 1 16 8 17 6 25 6 23 3 12 1h60l25-3 24-6 23-8 16-9zm0 19-6 27-7 19v3h20l9-4 6-5 4-7 1-4v-9l-4-10-9-8-6-2zm-226 13 1 8 6 16 8 14 9 11 12 12 16 11 6 3h3l-2-5-6-10-5-13-2-8-1-10h14l28-1 31-3 30-5 24-6 20-7 8-4-4-1-24 6-19 3-25 2h-59l-25-3-20-4-21-6z" fill="#53432B"/>
<path transform="translate(475,620)" d="m0 0h20l14 1 120 120 4 1 2-4 16-16h2l2-4 51-51 8-7 10-11 8-7 14-15 6-6h36l-2 4-8 7-7 8-139 139-4-2-155-155z" fill="#79664C"/>
<path transform="translate(668,583)" d="m0 0h411l-1 3-32 21h-305l-19-5-15-2h-30l-9-14z" fill="#56462E"/>
<path transform="translate(183,583)" d="m0 0h411l-1 4-6 10-3 3h-29l-20 3-14 4h-306l-32-22z" fill="#56462E"/>
<path transform="translate(637,131)" d="m0 0 5 2 17 8 18 5 12 2 8 7 247 247 2 1v3h-34l-8-7-95-95-7-16-7-9-8-7-12-6-7-3-7-7 3-9v-11l-4-10-7-8-14-9-17-7-21-6-64-64z" fill="#79654C"/>
<path transform="translate(610,229)" d="m0 0h42l21 2 23 5 15 5 11 6 6 7 1 7-3 5-8 7-14 6-23 6-21 3-14 1h-30l-22-2-18-3-21-6-16-8-5-6-1-2v-7l3-5 9-6 14-6 19-5 19-3zm-11 8-20 4-16 7-7 8 1 7 5 5 8 5 16 5 13 2h6l-3-2-13-5-9-6-4-6 1-7 5-6 12-6 12-4v-1zm56 0 2 2 15 5 10 6 3 5v8l-5 6-14 7-10 3v1h8l18-4 11-4 9-6 3-4v-7l-4-5-11-6-11-4-16-3zm-44 6-13 4-8 6-2 3 1 7 7 6 10 4 8 1-1-2-9-5-3-4-1-6 3-5 5-4 10-4v-1zm36 0v2l10 5 4 5v7l-6 7-9 4v1l9-1 11-4 7-6v-8l-5-5-10-5z" fill="#56462E"/>
<path transform="translate(546,174)" d="m0 0 5 1 15 7 5 2-2 4-7 7-23 7-13 5-12 7-8 7-6 10-2 6v7l3 9-1 4-148 148-2 1h-34l2-4z" fill="#7A664C"/>
<path transform="translate(669,71)" d="m0 0 8 1 17 8 16 10 12 10 6 8 3 12 4-5 1-2v-7l-4-8-9-10-7-6 2-1 14 9 7 7 5 10 1 6-3 10-7 7-10 5-11 3-15 1-18-2-17-5-25-12-16-8-25-11-17-5-6-1h-16l-10 3-8 5-3 5-1 4v8l4 12 7 9 7 7 14 9 12 6 24 8 10 2-19-7-19-10-12-9-8-11-3-9 1-3 6 11 5 6 14 9 20 9 44 16 21 6 9 2-3 2h-44l-26-3-21-5-16-6-13-7-11-8-9-8-6-9-4-9-2-7v-16l4-11 9-10 14-7 16-3 16 1 16 4 17 6 19 9 21 12 18 10 18 6 12 2h12l11-4 1-6-6-10-10-11-12-9-14-8-12-6z" fill="#57472F"/>
<path transform="translate(999,467)" d="m0 0h7l6 2 5 5 8 17 5 10 2 5h2l-1-18-3-3 1-10 4-6 2-1h17l5 2 4 8 1 6-4 4-1 4-1 64h-25l-6-9-12-23-4-7v18l7 6 1 3v7l-3 5h-28l-3-8 1-5h3l1-26-1-29-4-3 1-9 5-8zm38 38-1 12 3 3v-15z" fill="#57472F"/>
<path transform="translate(552,467)" d="m0 0h11l8 2 3 3 1 14-5 2-1-8v-2l-2 5 1 31v20l-1 10h3v11l-1 1h-24l-4-5-15-29-1-5h-2l1 9 3 9 4 10-2 10-1 1h-28l-2-3-1-8 3-2 2-6 3-2 1-5-3 1-1-5v-38l-4-2-1-5 3-5 2-6 3-2 18 1 5 3 8 16 6 17 3 3v-21l-3-1v-10l6-8zm-30 34 2 7 4 3-2-6-2-4zm6 10 1 2zm1 2 1 4 1-2zm2 4 1 2zm13 24 1 3z" fill="#53432B"/>
<path transform="translate(1169,468)" d="m0 0 33 1 11 4 6 5 5 7 2 8v14l-4 11-6 7 2 10 9 1 1 1 1 10-2 8-1 1h-31l-3-5v-2h-2l-1 6-1 1h-29l-2-6 1-12 4-1-1-48-4-3 1-13 3-4zm18 24-1 1v11h10l5-2v-7l-2-2-5-1zm-22 37-1 1v5h2v-6zm33 0 1 7h2l-1-6zm-12 1-1 4h-2v2l4 2 3 6 3-1 2-3-2-10zm-26 15 1 3 5-1-3-2zm60 0-1 2 4 1v-3z" fill="#54442C"/>
<path transform="translate(904,469)" d="m0 0h41l10 4 8 7 3 5 1 4v20l-4 9-3 4h-2v8l2 5 8 3 2 6-1 10-2 2h-30l-4-6-2 4-2 2h-28l-3-9 3-9 6-3v-9l-1-10-2-1-1-23-1-4-4-3 2-12zm25 23-2 1v10l2 2 13-1 1-7-3-4-4-1zm-5 30v14h2v-13zm3 8v6l3 2 2 6 3-3 1-7-2-4z" fill="#58472F"/>
<path transform="translate(617,199)" d="m0 0h26l26 2 20 3 21 5 19 7 11 6 9 8 4 8v8l-3 4-5-2-11-8-15-7-21-7-17-4-22-3-14-1h-29l-24 2-26 5-22 7-19 9-12 9h-3l-2-4v-11l6-8 9-7 15-7 19-6 19-4 25-3z" fill="#56452E"/>
<path transform="translate(837,467)" d="m0 0h17l12 5 7 6 7 15 2 9v23l-4 13-6 8-8 7-8 3-14 1-12-2-10-6-7-8-4-10-1-4v-15l2-1 2-18 4-13 6-7zm4 24-7 6-2 6-1 12 1 11 5 5 3 2h12l5-5 1-2v-19l-2-9-4-5-4-2z" fill="#56462E"/>
<path transform="translate(376,469)" d="m0 0h50l2 4-1 4-2 9 3-1 1 2v8l-5 2-5 1v25l-2 3-10 2-4-5h-4l-1 8 19-2 13-2 1 1v27l-1 1h-58l-2-5v-7l4-1-1-4 3-3h2v-5l-3-1-1-18v-22l-4-4v-8l4-8zm19 16 1 15h10l3-4 4-1v-2l-2-1h-13l-1-7z" fill="#56452E"/>
<path transform="translate(1086,469)" d="m0 0h49l1 2v9l-1 6 4-1v10l-9 3h-2l1 3v21l-2 4-10 2-4-5h-4l-1 8h9l1-1 11-1 7-1 2 1v10l-1 6-2 1 3-1 1-4v-9h2v23l-1 1h-57l-2-1-2-10 3-4v-4l6-1-1-8h-2l-1-12-1-28-3-2v-10l2-5zm23 23-2 7 1 1h8l3-4h5v-3l-2-1zm-26 50 1 2z" fill="#57472F"/>
<path transform="translate(150,468)" d="m0 0h19l7 1 6 13 4 12 4 9 8 32 7 3 2 5 3 1-1 8-2 4h-30l-3-5-1-7 2-4h2l1-4-4 1h-15l2 7-1 9-2 3h-30l-3-7v-5h3v3l2-1-1-7 8-5 7-27 4-17-1-10zm17 23-1 2v6h3v-6zm-3 11-2 5v4l3-1 1-8zm7 2-1 1v6l4 2-1-7zm34 40-8 1-1 2 2 1h8z" fill="#54442C"/>
<path transform="translate(598,469)" d="m0 0h48l1 2v14l4 1v8l-1 2-9 2-1 27-6 2h-6l-3-4-5-1 1 8 17 1 5-3 8-1 2 6v22l-1 1h-58l-3-9 1-9 3-2 5-1v-57l-5-2 1-6zm18 13v18h11l3-4h8v-2l-5-2h-13v-10zm28 4m-28 38v7l2-1-1-6z" fill="#5F4F37"/>
<path transform="translate(74,467)" d="m0 0h17l15 6 1 1v6h2l-1 6-10 14-6-1-5-2-2-5-7 1-4 2-4 9-2 9-1 1v7l4 8 6 3 10 1 6-3 6-6 6 1 6 3 3 3v5l1 5-7 7-10 6-12 3h-10l-9-2-10-6-7-8-4-10-2-11v-12l3-18 5-10 4-5 8-5zm28 12-7 10 1 3 5-5 3-5v-3zm-48 54 2 6 5 4 3-1-9-9z" fill="#584830"/>
<path transform="translate(752,467)" d="m0 0h16l10 3 6 3-1 5-8 11-2 1h4l6-8 2-3 3 1 1 3-12 17-6-1-5-3-1-4-8 1-5 4-3 9-2 11v6l4 6 4 3 11 1 7-3 6-6 6 1 5 2 4 10v4l-5 5-9 7-8 3-14 1-11-2-8-4-8-8-4-8-3-12v-20l3-14 5-10 7-7 9-4z" fill="#584830"/>
<path transform="translate(228,469)" d="m0 0h48l2 1v15l-7 1v2h11v6l-2 2-9 1v-2l-5-2h-14l-1 3h-3v5h10l3-4h6l4 4v25l-7 2h-5l-3-4h-4l-1 12 3 3 2 5-1 10-2 2h-28l-3-9 3-10h2v-46l-1-3-4-3 2-11 2-4z" fill="#56462E"/>
<path transform="translate(303,469)" d="m0 0h48l2 4v8l-1 4h3v10l-4 2h-7l1 4v25l-7 2h-5l-3-4-5-1-1 11h-1l-1-7v8l5 3 3 6-1 9-2 3h-28l-3-7v-5l3-2 1-5 5-1-1-27-2-4-1-15-5-5 1-7h4l2 3v7l2 1-1-10-4-3 1-6zm18 13v19h11l2-4 9 1-1-4-4-2h-9l-5 1v-9l-1-2zm1 37 1 3zm0 26-2 2h5z" fill="#5B4A32"/>
<path transform="translate(454,468)" d="m0 0h20l4 2 2 3 1 5v7l-4 3-1 46-1 2 5 3 1 10-2 6-1 1h-28l-3-8 1-4 2-1 1 4 2 1-3-7v-5h2v-24l-1-24-4-3 2-11 3-5zm1 11v8l2-1v-6z" fill="#57472F"/>
<path transform="translate(632,583)" d="m0 0 10 1 9 4 8 7 5 10 1 3v34l-3 9-9 10-5 2v-10l-4-13-8-15-9-16-3-8-1-9 3-6z" fill="#53422B"/>
<path transform="translate(612,587)" d="m0 0h1l1 13 5 14 8 14 8 16 2 6v11l-5 5-7 1-12-3-9-7-6-9-2-8v-29l3-10 4-6 7-7z" fill="#53432B"/>
<path transform="translate(1169,468)" d="m0 0 33 1 11 4 6 5 5 7 2 8v14l-4 11-6 7v6l-3-3-1-9h-2v-5l4-1 5-8 1-3v-13l-2-8-7-6-8-3-41-1 1 6 4 1v57l-3 4h-2v5l23-1-1-5-3-2v-17l1-1h13l3 5 1 6v8h-2l1 7h25v-5h-2l1-3h5l1 1 1 10-2 8-1 1h-31l-3-5v-2h-2l-1 6-1 1h-29l-2-6 1-12 4-1-1-48-4-3 1-13 3-4zm-4 61-1 1v5h2v-6zm21 1-1 4h-2v2l4 2 3 6 3-1 2-3-2-10zm-26 15 1 3 5-1-3-2zm60 0-1 2 4 1v-3z" fill="#E2DED3"/>
<path transform="translate(683,612)" d="m0 0h19l31 4-1 3-7 3-22 2-15 4h4l4-1 33-1 5-2h3l-2 5-8 10-10 9-14 8-16 6-14 3 1-4 5-11 2-13v-23z" fill="#53432C"/>
<path transform="translate(560,612)" d="m0 0h19l1 1 1 22 2 14 7 15-9-1-17-5-14-7-13-10-9-11-3-6 9 2h25l14 2-13-4-22-2-10-4v-2z" fill="#55452D"/>
<path transform="translate(394,481)" d="m0 0h23l1 5 10-1 1 2v8l-5 2-5 1v25l-2 3-10 2-4-5h-4l-1 8 19-2 13-2 1 1v27l-1 1h-58l-2-5v-7l4-1 53 1v-15l-7 2-1 3h-25v-23h10l3 2v2l6-1v-16h-4l-2 3h-13zm1 4 1 15h10l3-4 4-1v-2l-2-1h-13l-1-7z" fill="#E4E1D8"/>
<path transform="translate(74,467)" d="m0 0h17l15 6 1 1v6h2l-1 6-10 14-6-1-5-2-2-5-7 1-4 2-4 9-2 9-2 7h-1v-22l4-12 3-3 7-3h10l2 7 4 2 2 2 6-9v-7h-2v-2l-9-2-1-1h-17l-9 3-7 5-4 6-1 4h-2l-2 12v15l2 12h2l3 10 5 5 4-1v2l9 1h15l11-4 10-7-2-4-7-2-5 5-8 3h-9l-9-4v-3l4 3 7 2 9-1 8-7 5-1 8 4 3 3v5l1 5-7 7-10 6-12 3h-10l-9-2-10-6-7-8-4-10-2-11v-12l3-18 5-10 4-5 8-5z" fill="#BDAE84"/>
<path transform="translate(565,479)" d="m0 0h2v15l1 20v20l-1 10h3v11l-1 1h-24l-4-5-15-29-1-5h-2l1 9 3 9 4 10-2 10-1 1h-28l-2-3-1-8 3-2 2-6 4-2v2l-3 2-1 5h24v-5h-2v-2l-3-1v-37l3 1-2 1 4 8 3 4 2 4h2l7 15v2h2l3 7 2 1v2h18z" fill="#EAE7E3"/>
<path transform="translate(999,467)" d="m0 0h7l6 2 5 5 8 17 5 10 2 5h2l-1-18-3-3 1-10 4-6 2-1h17l4 2-22 1v6l3 1 1 2v44l-5-5-9-19-3-7-1-4h-2l-6-11-3-5v-2l-20 1 1 6 3 1v58l-3 2-1 5h24l1-4 2 1 1 3v7l-3 5h-28l-3-8 1-5h3l1-26-1-29-4-3 1-9 5-8zm38 38-1 12 3 3v-15z" fill="#EBE9E5"/>
<path transform="translate(837,467)" d="m0 0h17l12 5 7 6 7 15 2 9v23l-4 13-6 8-8 7-8 3-14 1-12-2-10-6-7-8-4-10-1-4v-15l2-1 1-12h1l2 23 4 10 3 5 12 6 4 1h16l10-2v-2l7-6h2l1-5h2l1-8 1-1 1-7v-11l-3-14-1-4h-2l-4-7-6-3v-2l-5-1h-24l-10 5-6 8-2 5-1-4 4-8 6-5z" fill="#E3DFD6"/>
<path transform="translate(228,469)" d="m0 0h48l2 1v15h-1v-14h-49l2 7 2 1v58l-3 2-1 5h23v-5l-3-1-1-10v-15l1-1h10l3 4h5l1-15 1-2h2l1 2v25l-7 2h-5l-3-4h-4l-1 12 3 3 2 5-1 10-2 2h-28l-3-9 3-10h2v-46l-1-3-4-3 2-11 2-4z" fill="#ECEAE7"/>
<path transform="translate(752,467)" d="m0 0h16l10 3 6 3-1 4-4-4-13-2h-9l-14 3-7 6-4 9-3 9v19l4 13 6 8 4 3 4 1v2h22l12-3v-2l7-5-1-4-3-3h-3l-4 4-9 4h-9l-7-2 1-2 7 2 10-1 9-8 6 1 5 2 4 10v4l-5 5-9 7-8 3-14 1-11-2-8-4-8-8-4-8-3-12v-20l3-14 5-10 7-7 9-4z" fill="#E2DED5"/>
<path transform="translate(156,525)" d="m0 0h23l3 7v6l-4 1 1 5h25v-5l-7-2 1-2 7 3 2 5 3 1-1 8-2 4h-30l-3-5-1-7 2-4h2l1-4-4 1h-15l2 7-1 9-2 3h-30l-3-7v-5h3v3l2-1v-2l26-1 1-4-4-3zm49 19-8 1-1 2 2 1h8z" fill="#E4E0D6"/>
<path transform="translate(924,519)" d="m0 0h13l1 5h2l3 10v3l-4 2 1 4 25 1-1-5-5-2 1-2 8 3 2 6-1 10-2 2h-30l-4-6-2 4-2 2h-28l-3-9 3-9 6-2-3 3v5h24v-6l-4-1 2-1-1-5v-8h-2zm3 11v6l3 2 2 6 3-3 1-7-2-4z" fill="#DCD6C7"/>
<path transform="translate(454,468)" d="m0 0h20l4 2 2 3 1 5v7l-4 3-1 46h-4v-54l3-4v-5l-22-1v6h2l1 3v7l1 4v44l-4 4v6h23v-6h-3v-2l6 2 2 6-1 10-2 2h-28l-3-8 1-4 2-1 1 4 2 1-3-7v-5h2v-24l-1-24-4-3 2-11 3-5z" fill="#DED9CC"/>
<path transform="translate(1104,481)" d="m0 0h23l1 5 11-1v10l-9 3h-2l1 3v21l-2 4-10 2-4-5h-4l-1 8h9l1-1 13-1-1 4-1 1h-25v-23h11l3 4h5l1-1 1-17-6 1-2 3h-13zm5 11-2 7 1 1h8l3-4h5v-3l-2-1z" fill="#DBD5C5"/>
<path transform="translate(1060,475)" d="m0 0 3 3 1 6-4 4-1 4-1 64h-25l-6-9-12-23-4-7h-1v-16h3l5 11 3 6v2h2l4 9 3 6v2h2l3 6v2l19-1 1-66z" fill="#E9E7E2"/>
<path transform="translate(188,438)" d="m0 0 2 1-2 2 888 1 1-2 2 3-3 1-893-1z" fill="#78644B"/>
<path transform="translate(303,469)" d="m0 0h48l2 4v8l-1 4h3v10l-4 2h-7l1 4v25l-7 2h-5l-3-4-5-1-1 11h-1l-1-12-1-9 1-1h10l3 4h5l1-5-1-12-3-2 6 1-2-4-3-1h-14l-1-11-2-1h22l2 2v3h6v-15h-49v5h2v2l-4-2 1-6z" fill="#EBE8E5"/>
<path transform="translate(649,527)" d="m0 0h2l2 6v22l-1 1h-58l-3-9 1-9 3-2 1 3v5h52v-15l-3-1z" fill="#BBAC80"/>
<path transform="translate(604,116)" d="m0 0 5 1 16 7 3 2-1 4-4 2-2 4-13 13-7-1-17-8v-4z" fill="#7A674D"/>
<path transform="translate(46,524)" d="m0 0 2 3 6 11 7 4 4-1v2l9 1h15l11-4 10-7-2-4-7-2-5 5-8 3h-9l-9-4v-3l4 3 7 2 9-1 8-7 5-1 8 4 3 3v5l1 5-7 7-10 6-12 3h-10l-9-2-10-6-7-8-4-10z" fill="#BBAC81"/>
<path transform="translate(1139,532)" d="m0 0h2v23l-1 1h-57l-2-1-2-10 3-4v-4l6-1-2 3-1 5h52l-2 2 3-1 1-4zm-56 10 1 2z" fill="#BBAC80"/>
<path transform="translate(620,482)" d="m0 0h18l3 3h9l1 1v8l-1 2-9 2-1 27-6 2h-6l-3-4-5-1 1 8 17 1 3-1-1 3h-24l1-6-1-3v-13h11l3 4h5v-17l-4-1-2 1 1-3 8 1v-2l-18-2z" fill="#EAE7E3"/>
<path transform="translate(837,481)" d="m0 0h13l5 3 3 3v2h2l3 8v18l-2 10-5 7-5 3h-10l-6-2v-2l-3-1-1-4h-2l-2-6v-25l3-7 4-5zm4 10-7 6-2 6-1 12 1 11 5 5 3 2h12l5-5 1-2v-19l-2-9-4-5-4-2z" fill="#E4E0D7"/>
<path transform="translate(904,469)" d="m0 0h41l10 4 8 7 3 5 1 4v20l-4 9-3 4h-2l-1 8-2-3-3-9 1-4h2l2-4 5-7 1-4v-10l-3-10-12-6-4-1-41-1v6l5 2v47h-1l-1-10-2-1-1-23-1-4-4-3 2-12z" fill="#E6E2DA"/>
<path transform="translate(683,612)" d="m0 0h19l31 4-1 3-7 3-22 2-15 4-2 1 1 2-5 2-1-4v-15z" fill="#5D4C34"/>
<path transform="translate(1157,545)" d="m0 0 2 2 30 1 1-3 4 1v2h34l-1 7-1 1h-31l-3-5v-2h-2l-1 6-1 1h-29l-2-6z" fill="#BBAD81"/>
<path transform="translate(933,544)" d="m0 0 3 3 33 1v6l-2 2h-30l-4-6-2 4-2 2h-28l-2-5v-5l1 2h31v-3z" fill="#BBAC80"/>
<path transform="translate(560,612)" d="m0 0h19l1 1v19l-7-2v-2l-13-4-22-2-10-4v-2z" fill="#5C4C33"/>
<path transform="translate(785,479)" d="m0 0 3 1 1 3-12 17-6-1-5-3-1-4-8 1-5 4-3 9-2 11-2 1-1-5v-12l3-11 3-5 5-4 3-1h10l3 7 4 2-2 1h4l6-8z" fill="#BDAF85"/>
<path transform="translate(880,523)" d="m0 0h1v7l-4 10-9 10-6 4-6 2-14 1-12-2-10-6-7-8-4-10v-6l2 3 6 10 7 6 11 4h20l10-4 9-8 5-10z" fill="#BBAD81"/>
<path transform="translate(521,499)" d="m0 0 3 1-2 1 1 22 6 16 2 9-2 7-1 1h-28l-2-3-1-8 3-2 2-6 4-2v2l-3 2-1 5h24v-5h-2v-2l-3-1z" fill="#E1DDD1"/>
<path transform="translate(725,522)" d="m0 0 2 3 6 12 8 7 11 4h19l12-5 7-6 5 1-2 5-10 8-8 4-11 2-14-1-9-4-8-7-5-7-3-9z" fill="#BCAD82"/>
<path transform="translate(228,469)" d="m0 0h48l2 1v15h-1v-14h-49l2 7 2 1v58l-3 2-1 5h23l1-3v4h-25l-2-4v-4h2v-46l-1-3-4-3 2-11 2-4z" fill="#D8D1BE"/>
<path transform="translate(371,548)" d="m0 0h60v7l-1 1h-58l-1-1z" fill="#BBAC80"/>
<path transform="translate(394,481)" d="m0 0h23l1 5 10-1 1 2v8l-5 2h-5l-1-4-20-1-1-7h-2l2 10-1 5 10-1 2-3h6l1 1v17l-2 2h-5l3-2h2v-16h-4l-2 3h-13z" fill="#BBAC80"/>
<path transform="translate(1181,481)" d="m0 0h20v2l3 1 2 7v7l-3 6-5 3h-17zm6 11-1 1v11h10l5-2v-7l-2-2-5-1z" fill="#E3DFD6"/>
<path transform="translate(923,481)" d="m0 0h17l3 1 1 2 3 1v15l-3 5h-2v2l-3 1h-16zm6 11-2 1v10l2 2 13-1 1-7-3-4-4-1z" fill="#E0DCD0"/>
<path transform="translate(1086,469)" d="m0 0h49l1 2v9h-1l-1-8-49-1v5l4 4v46l-4 2-1-12-1-28-3-2v-10l2-5z" fill="#E3DFD5"/>
<path transform="translate(376,469)" d="m0 0h50l2 4-1 4-1 5h-1l-1-10-49-1 1 6 3 3v51l-4-1-1-18v-22l-4-4v-8l4-8z" fill="#ECEAE7"/>
<path transform="translate(150,468)" d="m0 0h19l7 1 6 13 4 12 4 9 4 17-1 4-6-18-3-7-3-12-5-13v-3h-23v6l3 1-2 10h-2l-2 12-9 27-1-4 8-33-1-10z" fill="#DFDACC"/>
<path transform="translate(247,481)" d="m0 0h22l3 3-1 4h11v6l-2 2-9 1v-2l-5-2h-14l-1 3h-3v5h8v1h-9z" fill="#BCAD82"/>
<path transform="translate(302,536)" d="m0 0 3 1-3 2-1 6h21 1 3v-5h2l2 4-1 9-2 3h-28l-3-7v-5l3-2 1-5z" fill="#BBAC80"/>
<path transform="translate(1162,470)" d="m0 0h44l10 5 8 10 2 8v14l-4 11-6 7v6l-3-3-1-9h-2v-5l4-1 5-8 1-3v-13l-2-8-7-6-8-3-41-1z" fill="#E0DBD0"/>
<path transform="translate(1182,518)" d="m0 0h13l3 5 1 6v8h-2l1 7h25v-5h-2l1-3h5l1 1 1 10-1 1h-5v-2l-26-1-3-8-1-7-7 1-1 3h-2v2l4 1v5l-6-6v-17z" fill="#D6CFBD"/>
<path transform="translate(649,527)" d="m0 0h2l2 6v16l-60-1-2-1 1-9 3-2 1 3v5h52v-15l-3-1z" fill="#E2DED3"/>
<path transform="translate(1014,515)" d="m0 0 3 3 15 29 26 1v8h-25l-6-9-12-23-1-1z" fill="#BCAD82"/>
<path transform="translate(526,516)" d="m0 0 3 3 14 27 1 1 25 1 1 1v6l-1 1h-24l-4-5-15-29z" fill="#BBAC81"/>
<path transform="translate(99,524)" d="m0 0 6 1 6 3 3 3v6l-5 3-9 6-9 3h-19l-9-3-5-5 5 1 2-1v2l9 1h15l11-4 10-7-2-4-7-2-5 5-8 3h-9l-9-4v-3l4 3 7 2 9-1 8-7z" fill="#E4E0D7"/>
<path transform="translate(74,467)" d="m0 0h17l5 2v1h-22l-9 3-7 5-4 6-1 4h-2l-2 12v15l2 12h2l3 10 1 3-4-2-6-11h-2l-1-7v-12l3-18 5-10 4-5 8-5z" fill="#EBE9E5"/>
<path transform="translate(427,527)" d="m0 0 4 1v20h-60l-1 3v-7l4-1 53 1v-15l-3-1z" fill="#E1DDD1"/>
<path transform="translate(620,482)" d="m0 0h18l3 3h9l1 1v8l-1 2-10 1-1-3-3-1-16-1z" fill="#BBAC80"/>
<path transform="translate(500,476)" d="m0 0 7 2v57h-1v-5l-3 1-1-5v-38l-4-2-1-5z" fill="#E1DCD1"/>
<path transform="translate(207,543)" d="m0 0 3 1-1 8-2 4h-30l-3-5v-6l2 2 30 1z" fill="#BEAF86"/>
<path transform="translate(477,470)" d="m0 0 3 3 1 5v7l-4 3-1 46h-4v-54l3-4h2z" fill="#EBE9E6"/>
<path transform="translate(1139,532)" d="m0 0h2v16h-60l-2-1 2-6 1-4 6-1-2 3-1 5h52l-2 2 3-1 1-4zm-56 10 1 2z" fill="#DED8CB"/>
<path transform="translate(126,543)" d="m0 0 1 3v2h32l1-3h1l-1 8-2 3h-30l-3-7v-5z" fill="#BCAD82"/>
<path transform="translate(902,470)" d="m0 0h41v1h-40v6l5 2v47h-1l-1-10-2-1-1-23-1-4-4-3 2-12z" fill="#DAD3C1"/>
<path transform="translate(303,469)" d="m0 0h48l2 4v8l-1 4h3v4l-12 1-2-5h-17l-1-3-2-1h22l2 2v3h6v-15h-49v5h2v2l-4-2 1-6z" fill="#D7D0BE"/>
<path transform="translate(449,543)" d="m0 0 2 4h29v7l-2 2h-28l-3-8 1-4z" fill="#BDAE84"/>
<path transform="translate(1037,468)" d="m0 0h17l4 2-22 1v6l3 1v27h-2v8l-2 2-3-5v-3l2-1-1-18-3-3 1-10 4-6z" fill="#E4E1D8"/>
<path transform="translate(545,471)" d="m0 0h1l2 6 3 3v39h-2l-5-7 1-4v-21l-3-1v-10z" fill="#EBE9E6"/>
<path transform="translate(529,546)" d="m0 0h1v7l-2 3h-28l-2-3v-6l31 1z" fill="#BBAC80"/>
<path transform="translate(999,467)" d="m0 0h7l6 2 5 5 8 17 5 10 4 11 4 7 1-39h1v44l-5-5-9-19-3-7-1-4h-2l-6-11-3-5v-2l-20 1-2 3v-5l2-2z" fill="#B1A385"/>
<path transform="translate(986,546)" d="m0 0 1 2h31v6l-2 2h-28l-2-4z" fill="#BBAC80"/>
<path transform="translate(223,548)" d="m0 0h32v6l-2 2h-28l-2-5z" fill="#BBAC80"/>
<path transform="translate(758,480)" d="m0 0h10l3 7 4 2-2 1 1 2-7-2-2-5-9 1-5 6-2 7-1 14-2 5h-1l-1-5v-12l3-11 3-5 5-4z" fill="#E7E4DE"/>
<path transform="translate(79,480)" d="m0 0h10l2 7 4 2 2 4-9-3-2-2v-4l-9 2-5 5-2 6-1 13-2 4-1 6h-1v-22l4-12 3-3z" fill="#E7E4DD"/>
<path transform="translate(994,479)" d="m0 0h1v58l-3 2-1 5h24l1-4 2 1 1 3v7l-1-3h-33l1-5h3l1-5 3-2z" fill="#D5CDB9"/>
<path transform="translate(324,485)" d="m0 0h17l2 5 12-1v6l-4 2h-6v-2l-4-1-3-1h-14z" fill="#BCAD82"/>
<path transform="translate(1108,485)" d="m0 0h16l3 4h12v6l-5 2h-5l-2-3-5-1-14-1z" fill="#BBAC81"/>
<path transform="translate(1187,538)" d="m0 0 2 2 1 3h2l3-3 2 4 23 1 1 3h-27l-1-2h-3l-1 2h-24l-2-3h23z" fill="#ECEAE7"/>
<path transform="translate(841,484)" d="m0 0h8l6 5 3 8v6l-2-2-3-6-5-3h-7l-6 5-2 4h-1l1-9 4-6z" fill="#BCAD83"/>
<path transform="translate(926,535)" d="m0 0 5 3 2 7h-2v3h-31l-2-1 3-9 6-2-3 3v5h24v-6l-4-1z" fill="#E1DDD1"/>
<path transform="translate(165,496)" d="m0 0 1 3h3l1-3 2 5-1 10h3l2 4-1 1h-16l1-8zm-1 6-2 5v4l3-1 1-8z" fill="#C4B99C"/>
<path transform="translate(298,477)" d="m0 0 4 2 1 2v7l2 1-1-11h2v58h-1l-1-27-2-4-1-15-5-5 1-7z" fill="#D2C9B2"/>
<path transform="translate(247,481)" d="m0 0h22l3 3-1 4 4 2h-5l-3-4-16-1 1 8-1 3h-3v5h8v1h-9z" fill="#DED8CA"/>
<path transform="translate(1105,482)" d="m0 0h22l1 4 11-1v4l-12 1-3-4-16-1 1 8-1 7h-3z" fill="#ECEAE7"/>
<path transform="translate(565,479)" d="m0 0h2v15l1 20v20l-1 10-1 1h-20l-1-3h2v2h18z" fill="#AC9E85"/>
<path transform="translate(154,469)" d="m0 0h22l6 13 4 12 4 9 4 17-1 4-6-18-3-7-3-12-5-13v-3h-23l-1 5-1-3 1-3z" fill="#A59571"/>
<path transform="translate(959,535)" d="m0 0 9 3 2 6v5l-34-1-3-5 3-4 3 5 27 1v-7l-7-1z" fill="#E9E6E2"/>
<path transform="translate(181,532)" d="m0 0h1v6l-4 1 1 5h25v-5l-7-2 1-2 7 3 1 1v5l-1 1-8 1 1 2h-22-3l1-6 1-2h2v-2l4-1z" fill="#D1C9B7"/>
<path transform="translate(1108,515)" d="m0 0h6l3 4 11-1v7l-9 3-4-2-2-3-5-1z" fill="#BBAC81"/>
<path transform="translate(398,515)" d="m0 0h6l3 4 11-1v7l-5 2-6 1-4-5-5-2z" fill="#BCAE83"/>
<path transform="translate(620,515)" d="m0 0h5l3 4 12-1v7l-6 2h-6l-3-4-5-1z" fill="#BBAC80"/>
<path transform="translate(251,516)" d="m0 0h6l2 5 12-2v7l-7 2h-5l-3-4-5-2z" fill="#BBAC80"/>
<path transform="translate(325,516)" d="m0 0h5l3 4 11-1 1 1v6l-7 2h-5l-3-4-5-1z" fill="#BBAC80"/>
<path transform="translate(159,529)" d="m0 0h16l2 2-1 5-2 1h-13l-4-4z" fill="#BBAC80"/>
<path transform="translate(248,536)" d="m0 0 5 2 3 6v6l-1-2h-32l-1-3 4-4 1 4h25l-1-6-3-1z" fill="#E8E5E0"/>
<path transform="translate(505,468)" d="m0 0 18 1 5 3 8 16 4 12-1 3-5-9-3-10h-2l-7-13-19-1z" fill="#D9D2C0"/>
<path transform="translate(302,536)" d="m0 0 3 1-3 2-1 6h21 1 3v-5h2l2 4v5l-2-1h-30l-2 1v-5l3-2 1-5z" fill="#E7E3DC"/>
<path transform="translate(552,467)" d="m0 0h11l8 2 3 3 1 14-5 2-1-8v-3l1-7h-23l1-2z" fill="#BCAD82"/>
<path transform="translate(376,469)" d="m0 0h50l2 4-1 4-1 5h-1l-1-10-49-1v5h-2l1-6z" fill="#D2C9B0"/>
<path transform="translate(394,481)" d="m0 0h23v1h-22l2 13-1 5 10-1 2-3h6l1 1v17l-2 2h-5l3-2h2v-16h-4l-2 3h-13z" fill="#C4B894"/>
<path transform="translate(395,482)" d="m0 0h22l1 4 10-1 1 4-12 1-3-4-16-1-1 2v-2h-2z" fill="#ECEAE7"/>
<path transform="translate(1186,485)" d="m0 0h12l4 4v6l-16-3z" fill="#BBAD81"/>
<path transform="translate(927,485)" d="m0 0h12l4 3v7l-7-2-9-1z" fill="#BCAD82"/>
<path transform="translate(620,482)" d="m0 0h18l3 3h9l1 5-2-1-10 1-3-4-16-1z" fill="#E9E7E2"/>
<path transform="translate(477,538)" d="m0 0 3 1 1 10-2-1h-26l-1-3h25z" fill="#ECEAE7"/>
<path transform="translate(521,499)" d="m0 0 3 1-2 1 1 22 3 8 1 4v9h-1v-5h-2v-2l-3-1z" fill="#D0C7AF"/>
<path transform="translate(830,488)" d="m0 0 1 2-2 6v23l1 5h2l3 5 5 3 12 1-1 2h-10l-6-2v-2l-3-1-1-4h-2l-2-6v-25z" fill="#B8AB8C"/>
<path transform="translate(928,522)" d="m0 0h6l4 9v3h-3l-1-3-7-1v5l-2-1 1-10z" fill="#BDAE84"/>
<path transform="translate(1162,470)" d="m0 0h44l10 5 4 5-1 3-6-7-10-4-41-1z" fill="#BBAD88"/>
<path transform="translate(1012,470)" d="m0 0 5 4 8 17 5 10-3 1-4-9-1-4h-2l-4-8-3-7z" fill="#E3DFD5"/>
<path transform="translate(1162,534)" d="m0 0 4 1-2 4h-2v5l24-1v2h-26l1 3-3-1-1-3 2-7h3z" fill="#D3CAB4"/>
<path transform="translate(99,524)" d="m0 0 6 1 2 3-6-1-5 5-8 3h-9l-9-4v-3l4 3 7 2 9-1 8-7z" fill="#BAAE91"/>
<path transform="translate(1186,522)" d="m0 0h6l5 10v2l-4-1v-3l-7-1z" fill="#BBAC81"/>
<path transform="translate(660,181)" d="m0 0 10 1 4 2-3 1h-44v-1l34-1z" fill="#8E7C5C"/>
<path transform="translate(1224,504)" d="m0 0h1v7l-4 8-3 3h-2l-1-6 5-4z" fill="#BCAD83"/>
<path transform="translate(472,477)" d="m0 0 3 1-2 2v56h-2v-58z" fill="#7E6A4F"/>
<path transform="translate(965,506)" d="m0 0h1l-1 9-5 7-3-1-1-4 8-9z" fill="#BCAD83"/>
<path transform="translate(552,467)" d="m0 0h11l8 2 1 6-1 2-2-1 1-6h-23l1-2z" fill="#D2CAB4"/>
<path transform="translate(779,524)" d="m0 0 6 1-1 2h-3l-4 4-9 4h-9l-7-2 1-2 7 2 10-1z" fill="#C1B599"/>
<path transform="translate(669,71)" d="m0 0 8 1 17 8 1 2-8-2-6-2-12-6z" fill="#938160"/>
<path transform="translate(837,467)" d="m0 0m-3 1h3v2l-11 4-6 5-5 10-1-4 4-8 6-5z" fill="#E8E5E0"/>
<path transform="translate(549,478)" d="m0 0 3 1v44l-3-1-2-6 2 1v2h2l-1-39z" fill="#877557"/>
<path transform="translate(74,469)" d="m0 0h17v1l-19 2-10 5-5 5-2-1 4-5 8-5z" fill="#9E8D69"/>
<path transform="translate(408,496)" d="m0 0h6l1 1v17l-2 2h-5l3-2h2v-16h-4l-3 3z" fill="#9B8A67"/>
<path transform="translate(185,495)" d="m0 0h2l4 11 3 14-1 4-5-15z" fill="#D7D0BC"/>
<path transform="translate(1222,536)" d="m0 0h5l1 1 1 10-1 1h-5l1-8z" fill="#ECEAE7"/>
<path transform="translate(593,476)" d="m0 0 3 1 2 4-1 7-5-2-1-3z" fill="#C9BE9F"/>
<path transform="translate(298,477)" d="m0 0 4 2 1 2-1 7-5-2-1-4z" fill="#C7BB9A"/>
<path transform="translate(164,510)" d="m0 0 9 2 1 3h-14l1-4z" fill="#ECEAE7"/>
<path transform="translate(734,624)" d="m0 0h3l-1 3-6 1h-34v-1l33-1z" fill="#938160"/>
<path transform="translate(92,470)" d="m0 0 9 1 6 3-1 7-2 1-1-7h-2v-2l-9-2z" fill="#D2CAB8"/>
<path transform="translate(612,235)" d="m0 0h7v2l-14 3-4-1 3-1-5-1v-1z" fill="#7F6B50"/>
<path transform="translate(605,172)" d="m0 0 12 1 8 1 5 2v1h-9l-16-4z" fill="#837054"/>
<path transform="translate(987,479)" d="m0 0 4 2v6l-2 1-4-3 1-5z" fill="#C1B38D"/>
<path transform="translate(643,235)" d="m0 0 19 1v1l-5 1v1l-11-1-3-1z" fill="#7D694F"/>
<path transform="translate(224,479)" d="m0 0 4 2v6l-2 1-4-3 1-5z" fill="#C0B28A"/>
<path transform="translate(900,479)" d="m0 0 4 2v6l-5-1-1-4z" fill="#C0B28B"/>
<path transform="translate(1157,479)" d="m0 0 4 1 1 1v7l-5-2z" fill="#C1B48D"/>
<path transform="translate(543,479)" d="m0 0 4 2v7l-5-2v-6z" fill="#BDAF85"/>
<path transform="translate(1030,479)" d="m0 0 4 1 1 1v7l-4-2-1-1z" fill="#C0B28B"/>
<path transform="translate(1061,479)" d="m0 0 3 3-2 5h-4l1-7z" fill="#BFB188"/>
<path transform="translate(1129,529)" d="m0 0v3l-1 1h-11l2-3z" fill="#ECEAE7"/>
<path transform="translate(605,279)" d="m0 0h8l6 2v1h-14z" fill="#897759"/>
<path transform="translate(1081,479)" d="m0 0 4 2v6l-5-1z" fill="#BCAD83"/>
<path transform="translate(371,479)" d="m0 0 4 2v6l-5-1z" fill="#BCAD83"/>
<path transform="translate(326,540)" d="m0 0h2l2 4v5l-7-1v-3h3z" fill="#ECEAE7"/>
<path transform="translate(1139,532)" d="m0 0h2v16l-3-1 1-6z" fill="#ECEAE7"/>
<path transform="translate(498,480)" d="m0 0 4 1v7l-4-2-1-5z" fill="#BFB189"/>
<path transform="translate(449,479)" d="m0 0 3 1v8l-5-3 1-5z" fill="#BEAF86"/>
<path transform="translate(478,479)" d="m0 0h2l1 6-2 2h-3v-6z" fill="#BBAC80"/>
<path transform="translate(651,279)" d="m0 0 7 1-2 2h-14l4-2z" fill="#877456"/>
<path transform="translate(571,470)" d="m0 0 3 2v7l-5 3 2-8z" fill="#ECEAE7"/>
<path transform="translate(1209,472)" d="m0 0 6 2 5 6-1 3-6-7-4-2z" fill="#C9BD9D"/>
<path transform="translate(645,272)" d="m0 0 4 1-2 3h-10l1-2z" fill="#847154"/>
<path transform="translate(1137,474)" d="m0 0h1v8h-1z" fill="#ECEAE7"/>
<path transform="translate(1013,525)" d="m0 0 1 4z" fill="#ECEAE7"/>
</svg>
